<svg width="800" height="600" viewBox="0 0 800 600" fill="none" xmlns="http://www.w3.org/2000/svg">
  <rect width="800" height="600" fill="#fdba74" />
  <g fill="white" fill-opacity="0.20">
    <path d="M800 400C689 23.6273 596.093 295 596.093 0H800V400Z"/>
    <path fill-rule="evenodd" clip-rule="evenodd" d="M544.727 0L146.969 0C119.541 18.6652 88.5499 48.3184 60.0756 79.017C112.673 226.394 219.013 502.676 282.677 600H445.512C405.974 495.978 423.958 464.264 446.102 425.213C459.456 401.664 474.323 375.446 479 329.092C489.253 293.023 507.575 270.053 525.229 247.921C562.785 200.839 597.318 157.546 544.727 0ZM236.329 600H0L0 149.209C10.2379 136.268 22.2857 121.639 35.4003 106.535C63.7693 115.902 83.7384 172.209 151.945 364.532L151.945 364.532C174.253 427.433 201.721 504.884 236.329 600ZM0 93.0612C29.6168 84.5678 67.4342 61.0583 84.6754 0L0 0L0 93.0612Z"/>
    <path fill-rule="evenodd" clip-rule="evenodd" d="M800 467.089V600H479.274C461.587 351.267 593.498 206.397 650 187C694.744 213.767 726.447 315.328 745.721 377.075C747.985 384.328 750.078 391.031 752 397C760.432 423.184 778.167 446.152 800 467.089Z"/>
  </g>
</svg>
