<svg width="32" height="32" viewBox="0 0 32 32" fill="none" xmlns="http://www.w3.org/2000/svg">
<g clip-path="url(#clip0_11_1027)">
<mask id="mask0_11_1027" style="mask-type:alpha" maskUnits="userSpaceOnUse" x="7" y="7" width="23" height="23">
<path fill-rule="evenodd" clip-rule="evenodd" d="M21.2132 21.2132C25.1184 17.308 25.1184 10.9763 21.2132 7.07106L26.1567 12.0146L26.163 12.0208L26.1692 12.0271L26.8701 12.7279L26.8351 12.7628C30.0536 16.6908 29.8295 22.4963 26.163 26.1629C22.4964 29.8295 16.6909 30.0536 12.7628 26.8351L12.7279 26.87L7.07107 21.2132C10.9763 25.1184 17.308 25.1184 21.2132 21.2132Z" fill="#00FFFF"/>
</mask>
<g mask="url(#mask0_11_1027)">
<path d="M9.63657 1.6366H10.535V2.53503H9.63657V1.6366Z" fill="#083344"/>
<path d="M8.58579 2.58581H9.58579V3.58581H8.58579V2.58581Z" fill="#083344"/>
<path d="M4.38657 6.3866H5.78501V7.78503H4.38657V6.3866Z" fill="#083344"/>
<path d="M3.33579 7.33581H4.83579V8.83581H3.33579V7.33581Z" fill="#083344"/>
<path d="M2.28501 8.28503H3.88657V9.8866H2.28501V8.28503Z" fill="#083344"/>
<path d="M1.23813 9.23816H2.93345V10.9335H1.23813V9.23816Z" fill="#083344"/>
<path d="M0.187352 10.1874H1.98423V11.9843H0.187352V10.1874Z" fill="#083344"/>
<path d="M-0.863429 11.1366H1.03501V13.035H-0.863429V11.1366Z" fill="#083344"/>
<path d="M-1.91421 12.0858H0.0857894V14.0858H-1.91421V12.0858Z" fill="#083344"/>
<path d="M7.53501 3.53503H8.63657V4.6366H7.53501V3.53503Z" fill="#083344"/>
<path d="M6.48423 4.48425H7.68735V5.68738H6.48423V4.48425Z" fill="#083344"/>
<path d="M5.43345 5.43347H6.73813V6.73816H5.43345V5.43347Z" fill="#083344"/>
<path d="M10.6874 0.687378H11.4842V1.48425H10.6874V0.687378Z" fill="#083344"/>
<path d="M11.7342 -0.265747H12.4374V0.437378H11.7342V-0.265747Z" fill="#083344"/>
<path d="M12.785 -1.21497H13.3866V-0.613404H12.785V-1.21497Z" fill="#083344"/>
<path d="M13.8358 -2.16418H14.3358V-1.66418H13.8358V-2.16418Z" fill="#083344"/>
<path d="M14.8866 -3.1134H15.285V-2.71497H14.8866V-3.1134Z" fill="#083344"/>
<path d="M15.9334 -4.06653H16.2381V-3.76184H15.9334V-4.06653Z" fill="#083344"/>
<path d="M16.9842 -5.01575H17.1874V-4.81262H16.9842V-5.01575Z" fill="#083344"/>
<path d="M10.6366 2.6366H11.535V3.53503H10.6366V2.6366Z" fill="#083344"/>
<path d="M9.58579 3.58581H10.5858V4.58581H9.58579V3.58581Z" fill="#083344"/>
<path d="M5.38657 7.3866H6.78501V8.78503H5.38657V7.3866Z" fill="#083344"/>
<path d="M4.33579 8.33581H5.83579V9.83581H4.33579V8.33581Z" fill="#083344"/>
<path d="M3.28501 9.28503H4.88657V10.8866H3.28501V9.28503Z" fill="#083344"/>
<path d="M2.23813 10.2382H3.93345V11.9335H2.23813V10.2382Z" fill="#083344"/>
<path d="M1.18735 11.1874H2.98423V12.9843H1.18735V11.1874Z" fill="#083344"/>
<path d="M0.136571 12.1366H2.03501V14.035H0.136571V12.1366Z" fill="#083344"/>
<path d="M-0.91421 13.0858H1.08579V15.0858H-0.91421V13.0858Z" fill="#083344"/>
<path d="M8.53501 4.53503H9.63657V5.6366H8.53501V4.53503Z" fill="#083344"/>
<path d="M7.48423 5.48425H8.68735V6.68738H7.48423V5.48425Z" fill="#083344"/>
<path d="M6.43345 6.43347H7.73813V7.73816H6.43345V6.43347Z" fill="#083344"/>
<path d="M11.6874 1.68738H12.4842V2.48425H11.6874V1.68738Z" fill="#083344"/>
<path d="M12.7342 0.734253H13.4374V1.43738H12.7342V0.734253Z" fill="#083344"/>
<path d="M13.785 -0.214966H14.3866V0.386596H13.785V-0.214966Z" fill="#083344"/>
<path d="M14.8358 -1.16418H15.3358V-0.664185H14.8358V-1.16418Z" fill="#083344"/>
<path d="M15.8866 -2.1134H16.285V-1.71497H15.8866V-2.1134Z" fill="#083344"/>
<path d="M16.9334 -3.06653H17.2381V-2.76184H16.9334V-3.06653Z" fill="#083344"/>
<path d="M17.9842 -4.01575H18.1874V-3.81262H17.9842V-4.01575Z" fill="#083344"/>
<path d="M11.6366 3.6366H12.535V4.53503H11.6366V3.6366Z" fill="#083344"/>
<path d="M10.5858 4.58581H11.5858V5.58581H10.5858V4.58581Z" fill="#083344"/>
<path d="M6.38657 8.3866H7.78501V9.78503H6.38657V8.3866Z" fill="#083344"/>
<path d="M5.33579 9.33581H6.83579V10.8358H5.33579V9.33581Z" fill="#083344"/>
<path d="M4.28501 10.285H5.88657V11.8866H4.28501V10.285Z" fill="#083344"/>
<path d="M3.23813 11.2382H4.93345V12.9335H3.23813V11.2382Z" fill="#083344"/>
<path d="M2.18735 12.1874H3.98423V13.9843H2.18735V12.1874Z" fill="#083344"/>
<path d="M1.13657 13.1366H3.03501V15.035H1.13657V13.1366Z" fill="#083344"/>
<path d="M0.0857894 14.0858H2.08579V16.0858H0.0857894V14.0858Z" fill="#083344"/>
<path d="M9.53501 5.53503H10.6366V6.6366H9.53501V5.53503Z" fill="#083344"/>
<path d="M8.48423 6.48425H9.68735V7.68738H8.48423V6.48425Z" fill="#083344"/>
<path d="M7.43345 7.43347H8.73813V8.73816H7.43345V7.43347Z" fill="#083344"/>
<path d="M12.6874 2.68738H13.4842V3.48425H12.6874V2.68738Z" fill="#083344"/>
<path d="M13.7342 1.73425H14.4374V2.43738H13.7342V1.73425Z" fill="#083344"/>
<path d="M14.785 0.785034H15.3866V1.3866H14.785V0.785034Z" fill="#083344"/>
<path d="M15.8358 -0.164185H16.3358V0.335815H15.8358V-0.164185Z" fill="#083344"/>
<path d="M16.8866 -1.1134H17.285V-0.714966H16.8866V-1.1134Z" fill="#083344"/>
<path d="M17.9334 -2.06653H18.2381V-1.76184H17.9334V-2.06653Z" fill="#083344"/>
<path d="M18.9842 -3.01575H19.1874V-2.81262H18.9842V-3.01575Z" fill="#083344"/>
<path d="M12.6366 4.6366H13.535V5.53503H12.6366V4.6366Z" fill="#083344"/>
<path d="M11.5858 5.58581H12.5858V6.58581H11.5858V5.58581Z" fill="#083344"/>
<path d="M7.38657 9.3866H8.78501V10.785H7.38657V9.3866Z" fill="#083344"/>
<path d="M6.33579 10.3358H7.83579V11.8358H6.33579V10.3358Z" fill="#083344"/>
<path d="M5.28501 11.285H6.88657V12.8866H5.28501V11.285Z" fill="#083344"/>
<path d="M4.23813 12.2382H5.93345V13.9335H4.23813V12.2382Z" fill="#083344"/>
<path d="M3.18735 13.1874H4.98423V14.9843H3.18735V13.1874Z" fill="#083344"/>
<path d="M2.13657 14.1366H4.03501V16.035H2.13657V14.1366Z" fill="#083344"/>
<path d="M1.08579 15.0858H3.08579V17.0858H1.08579V15.0858Z" fill="#083344"/>
<path d="M10.535 6.53503H11.6366V7.6366H10.535V6.53503Z" fill="#083344"/>
<path d="M9.48423 7.48425H10.6874V8.68738H9.48423V7.48425Z" fill="#083344"/>
<path d="M8.43345 8.43347H9.73813V9.73816H8.43345V8.43347Z" fill="#083344"/>
<path d="M13.6874 3.68738H14.4842V4.48425H13.6874V3.68738Z" fill="#083344"/>
<path d="M14.7342 2.73425H15.4374V3.43738H14.7342V2.73425Z" fill="#083344"/>
<path d="M15.785 1.78503H16.3866V2.3866H15.785V1.78503Z" fill="#083344"/>
<path d="M16.8358 0.835815H17.3358V1.33582H16.8358V0.835815Z" fill="#083344"/>
<path d="M17.8866 -0.113404H18.285V0.285034H17.8866V-0.113404Z" fill="#083344"/>
<path d="M18.9334 -1.06653H19.2381V-0.761841H18.9334V-1.06653Z" fill="#083344"/>
<path d="M19.9842 -2.01575H20.1874V-1.81262H19.9842V-2.01575Z" fill="#083344"/>
<path d="M13.6366 5.6366H14.535V6.53503H13.6366V5.6366Z" fill="#083344"/>
<path d="M12.5858 6.58581H13.5858V7.58581H12.5858V6.58581Z" fill="#083344"/>
<path d="M8.38657 10.3866H9.78501V11.785H8.38657V10.3866Z" fill="#083344"/>
<path d="M7.33579 11.3358H8.83579V12.8358H7.33579V11.3358Z" fill="#083344"/>
<path d="M6.28501 12.285H7.88657V13.8866H6.28501V12.285Z" fill="#083344"/>
<path d="M5.23813 13.2382H6.93345V14.9335H5.23813V13.2382Z" fill="#083344"/>
<path d="M4.18735 14.1874H5.98423V15.9843H4.18735V14.1874Z" fill="#083344"/>
<path d="M3.13657 15.1366H5.03501V17.035H3.13657V15.1366Z" fill="#083344"/>
<path d="M2.08579 16.0858H4.08579V18.0858H2.08579V16.0858Z" fill="#083344"/>
<path d="M11.535 7.53503H12.6366V8.6366H11.535V7.53503Z" fill="#083344"/>
<path d="M10.4842 8.48425H11.6874V9.68738H10.4842V8.48425Z" fill="#083344"/>
<path d="M9.43345 9.43347H10.7381V10.7382H9.43345V9.43347Z" fill="#083344"/>
<path d="M14.6874 4.68738H15.4842V5.48425H14.6874V4.68738Z" fill="#083344"/>
<path d="M15.7342 3.73425H16.4374V4.43738H15.7342V3.73425Z" fill="#083344"/>
<path d="M16.785 2.78503H17.3866V3.3866H16.785V2.78503Z" fill="#083344"/>
<path d="M17.8358 1.83582H18.3358V2.33581H17.8358V1.83582Z" fill="#083344"/>
<path d="M18.8866 0.886596H19.285V1.28503H18.8866V0.886596Z" fill="#083344"/>
<path d="M19.9334 -0.0665286H20.2381V0.238159H19.9334V-0.0665286Z" fill="#083344"/>
<path d="M20.9842 -1.01575H21.1874V-0.812622H20.9842V-1.01575Z" fill="#083344"/>
<path d="M14.6366 6.6366H15.535V7.53503H14.6366V6.6366Z" fill="#083344"/>
<path d="M13.5858 7.58581H14.5858V8.58581H13.5858V7.58581Z" fill="#083344"/>
<path d="M9.38657 11.3866H10.785V12.785H9.38657V11.3866Z" fill="#083344"/>
<path d="M8.33579 12.3358H9.83579V13.8358H8.33579V12.3358Z" fill="#083344"/>
<path d="M7.28501 13.285H8.88657V14.8866H7.28501V13.285Z" fill="#083344"/>
<path d="M6.23813 14.2382H7.93345V15.9335H6.23813V14.2382Z" fill="#083344"/>
<path d="M5.18735 15.1874H6.98423V16.9843H5.18735V15.1874Z" fill="#083344"/>
<path d="M4.13657 16.1366H6.03501V18.035H4.13657V16.1366Z" fill="#083344"/>
<path d="M3.08579 17.0858H5.08579V19.0858H3.08579V17.0858Z" fill="#083344"/>
<path d="M12.535 8.53503H13.6366V9.6366H12.535V8.53503Z" fill="#083344"/>
<path d="M11.4842 9.48425H12.6874V10.6874H11.4842V9.48425Z" fill="#083344"/>
<path d="M10.4334 10.4335H11.7381V11.7382H10.4334V10.4335Z" fill="#083344"/>
<path d="M15.6874 5.68738H16.4842V6.48425H15.6874V5.68738Z" fill="#083344"/>
<path d="M16.7342 4.73425H17.4374V5.43738H16.7342V4.73425Z" fill="#083344"/>
<path d="M17.785 3.78503H18.3866V4.3866H17.785V3.78503Z" fill="#083344"/>
<path d="M18.8358 2.83581H19.3358V3.33581H18.8358V2.83581Z" fill="#083344"/>
<path d="M19.8866 1.8866H20.285V2.28503H19.8866V1.8866Z" fill="#083344"/>
<path d="M20.9334 0.933471H21.2381V1.23816H20.9334V0.933471Z" fill="#083344"/>
<path d="M21.9842 -0.0157474H22.1874V0.187378H21.9842V-0.0157474Z" fill="#083344"/>
<path d="M15.6366 7.6366H16.535V8.53503H15.6366V7.6366Z" fill="#083344"/>
<path d="M14.5858 8.58581H15.5858V9.58581H14.5858V8.58581Z" fill="#083344"/>
<path d="M10.3866 12.3866H11.785V13.785H10.3866V12.3866Z" fill="#083344"/>
<path d="M9.33579 13.3358H10.8358V14.8358H9.33579V13.3358Z" fill="#083344"/>
<path d="M8.28501 14.285H9.88657V15.8866H8.28501V14.285Z" fill="#083344"/>
<path d="M7.23813 15.2382H8.93345V16.9335H7.23813V15.2382Z" fill="#083344"/>
<path d="M6.18735 16.1874H7.98423V17.9843H6.18735V16.1874Z" fill="#083344"/>
<path d="M5.13657 17.1366H7.03501V19.035H5.13657V17.1366Z" fill="#083344"/>
<path d="M4.08579 18.0858H6.08579V20.0858H4.08579V18.0858Z" fill="#083344"/>
<path d="M13.535 9.53503H14.6366V10.6366H13.535V9.53503Z" fill="#083344"/>
<path d="M12.4842 10.4843H13.6874V11.6874H12.4842V10.4843Z" fill="#083344"/>
<path d="M11.4334 11.4335H12.7381V12.7382H11.4334V11.4335Z" fill="#083344"/>
<path d="M16.6874 6.68738H17.4842V7.48425H16.6874V6.68738Z" fill="#083344"/>
<path d="M17.7342 5.73425H18.4374V6.43738H17.7342V5.73425Z" fill="#083344"/>
<path d="M18.785 4.78503H19.3866V5.3866H18.785V4.78503Z" fill="#083344"/>
<path d="M19.8358 3.83581H20.3358V4.33581H19.8358V3.83581Z" fill="#083344"/>
<path d="M20.8866 2.8866H21.285V3.28503H20.8866V2.8866Z" fill="#083344"/>
<path d="M21.9334 1.93347H22.2381V2.23816H21.9334V1.93347Z" fill="#083344"/>
<path d="M22.9842 0.984253H23.1874V1.18738H22.9842V0.984253Z" fill="#083344"/>
<path d="M16.6366 8.6366H17.535V9.53503H16.6366V8.6366Z" fill="#083344"/>
<path d="M15.5858 9.58581H16.5858V10.5858H15.5858V9.58581Z" fill="#083344"/>
<path d="M11.3866 13.3866H12.785V14.785H11.3866V13.3866Z" fill="#083344"/>
<path d="M10.3358 14.3358H11.8358V15.8358H10.3358V14.3358Z" fill="#083344"/>
<path d="M9.28501 15.285H10.8866V16.8866H9.28501V15.285Z" fill="#083344"/>
<path d="M8.23813 16.2382H9.93345V17.9335H8.23813V16.2382Z" fill="#083344"/>
<path d="M7.18735 17.1874H8.98423V18.9843H7.18735V17.1874Z" fill="#083344"/>
<path d="M6.13657 18.1366H8.03501V20.035H6.13657V18.1366Z" fill="#083344"/>
<path d="M5.08579 19.0858H7.08579V21.0858H5.08579V19.0858Z" fill="#083344"/>
<path d="M14.535 10.535H15.6366V11.6366H14.535V10.535Z" fill="#083344"/>
<path d="M13.4842 11.4843H14.6874V12.6874H13.4842V11.4843Z" fill="#083344"/>
<path d="M12.4334 12.4335H13.7381V13.7382H12.4334V12.4335Z" fill="#083344"/>
<path d="M17.6874 7.68738H18.4842V8.48425H17.6874V7.68738Z" fill="#083344"/>
<path d="M18.7342 6.73425H19.4374V7.43738H18.7342V6.73425Z" fill="#083344"/>
<path d="M19.785 5.78503H20.3866V6.3866H19.785V5.78503Z" fill="#083344"/>
<path d="M20.8358 4.83581H21.3358V5.33581H20.8358V4.83581Z" fill="#083344"/>
<path d="M21.8866 3.8866H22.285V4.28503H21.8866V3.8866Z" fill="#083344"/>
<path d="M22.9334 2.93347H23.2381V3.23816H22.9334V2.93347Z" fill="#083344"/>
<path d="M23.9842 1.98425H24.1874V2.18738H23.9842V1.98425Z" fill="#083344"/>
<path d="M17.6366 9.6366H18.535V10.535H17.6366V9.6366Z" fill="#083344"/>
<path d="M16.5858 10.5858H17.5858V11.5858H16.5858V10.5858Z" fill="#083344"/>
<path d="M12.3866 14.3866H13.785V15.785H12.3866V14.3866Z" fill="#083344"/>
<path d="M11.3358 15.3358H12.8358V16.8358H11.3358V15.3358Z" fill="#083344"/>
<path d="M10.285 16.285H11.8866V17.8866H10.285V16.285Z" fill="#083344"/>
<path d="M9.23813 17.2382H10.9334V18.9335H9.23813V17.2382Z" fill="#083344"/>
<path d="M8.18735 18.1874H9.98423V19.9843H8.18735V18.1874Z" fill="#083344"/>
<path d="M7.13657 19.1366H9.03501V21.035H7.13657V19.1366Z" fill="#083344"/>
<path d="M6.08579 20.0858H8.08579V22.0858H6.08579V20.0858Z" fill="#083344"/>
<path d="M15.535 11.535H16.6366V12.6366H15.535V11.535Z" fill="#083344"/>
<path d="M14.4842 12.4843H15.6874V13.6874H14.4842V12.4843Z" fill="#083344"/>
<path d="M13.4334 13.4335H14.7381V14.7382H13.4334V13.4335Z" fill="#083344"/>
<path d="M18.6874 8.68738H19.4842V9.48425H18.6874V8.68738Z" fill="#083344"/>
<path d="M19.7342 7.73425H20.4374V8.43738H19.7342V7.73425Z" fill="#083344"/>
<path d="M20.785 6.78503H21.3866V7.3866H20.785V6.78503Z" fill="#083344"/>
<path d="M21.8358 5.83581H22.3358V6.33581H21.8358V5.83581Z" fill="#083344"/>
<path d="M22.8866 4.8866H23.285V5.28503H22.8866V4.8866Z" fill="#083344"/>
<path d="M23.9334 3.93347H24.2381V4.23816H23.9334V3.93347Z" fill="#083344"/>
<path d="M24.9842 2.98425H25.1874V3.18738H24.9842V2.98425Z" fill="#083344"/>
<path d="M18.6366 10.6366H19.535V11.535H18.6366V10.6366Z" fill="#083344"/>
<path d="M17.5858 11.5858H18.5858V12.5858H17.5858V11.5858Z" fill="#083344"/>
<path d="M13.3866 15.3866H14.785V16.785H13.3866V15.3866Z" fill="#083344"/>
<path d="M12.3358 16.3358H13.8358V17.8358H12.3358V16.3358Z" fill="#083344"/>
<path d="M11.285 17.285H12.8866V18.8866H11.285V17.285Z" fill="#083344"/>
<path d="M10.2381 18.2382H11.9334V19.9335H10.2381V18.2382Z" fill="#083344"/>
<path d="M9.18735 19.1874H10.9842V20.9843H9.18735V19.1874Z" fill="#083344"/>
<path d="M8.13657 20.1366H10.035V22.035H8.13657V20.1366Z" fill="#083344"/>
<path d="M7.08579 21.0858H9.08579V23.0858H7.08579V21.0858Z" fill="#083344"/>
<path d="M16.535 12.535H17.6366V13.6366H16.535V12.535Z" fill="#083344"/>
<path d="M15.4842 13.4843H16.6874V14.6874H15.4842V13.4843Z" fill="#083344"/>
<path d="M14.4334 14.4335H15.7381V15.7382H14.4334V14.4335Z" fill="#083344"/>
<path d="M19.6874 9.68738H20.4842V10.4843H19.6874V9.68738Z" fill="#083344"/>
<path d="M20.7342 8.73425H21.4374V9.43738H20.7342V8.73425Z" fill="#083344"/>
<path d="M21.785 7.78503H22.3866V8.3866H21.785V7.78503Z" fill="#083344"/>
<path d="M22.8358 6.83581H23.3358V7.33581H22.8358V6.83581Z" fill="#083344"/>
<path d="M23.8866 5.8866H24.285V6.28503H23.8866V5.8866Z" fill="#083344"/>
<path d="M24.9334 4.93347H25.2381V5.23816H24.9334V4.93347Z" fill="#083344"/>
<path d="M25.9842 3.98425H26.1874V4.18738H25.9842V3.98425Z" fill="#083344"/>
<path d="M19.6366 11.6366H20.535V12.535H19.6366V11.6366Z" fill="#083344"/>
<path d="M18.5858 12.5858H19.5858V13.5858H18.5858V12.5858Z" fill="#083344"/>
<path d="M14.3866 16.3866H15.785V17.785H14.3866V16.3866Z" fill="#083344"/>
<path d="M13.3358 17.3358H14.8358V18.8358H13.3358V17.3358Z" fill="#083344"/>
<path d="M12.285 18.285H13.8866V19.8866H12.285V18.285Z" fill="#083344"/>
<path d="M11.2381 19.2382H12.9334V20.9335H11.2381V19.2382Z" fill="#083344"/>
<path d="M10.1874 20.1874H11.9842V21.9843H10.1874V20.1874Z" fill="#083344"/>
<path d="M9.13657 21.1366H11.035V23.035H9.13657V21.1366Z" fill="#083344"/>
<path d="M8.08579 22.0858H10.0858V24.0858H8.08579V22.0858Z" fill="#083344"/>
<path d="M17.535 13.535H18.6366V14.6366H17.535V13.535Z" fill="#083344"/>
<path d="M16.4842 14.4843H17.6874V15.6874H16.4842V14.4843Z" fill="#083344"/>
<path d="M15.4334 15.4335H16.7381V16.7382H15.4334V15.4335Z" fill="#083344"/>
<path d="M20.6874 10.6874H21.4842V11.4843H20.6874V10.6874Z" fill="#083344"/>
<path d="M21.7342 9.73425H22.4374V10.4374H21.7342V9.73425Z" fill="#083344"/>
<path d="M22.785 8.78503H23.3866V9.3866H22.785V8.78503Z" fill="#083344"/>
<path d="M23.8358 7.83581H24.3358V8.33581H23.8358V7.83581Z" fill="#083344"/>
<path d="M24.8866 6.8866H25.285V7.28503H24.8866V6.8866Z" fill="#083344"/>
<path d="M25.9334 5.93347H26.2381V6.23816H25.9334V5.93347Z" fill="#083344"/>
<path d="M26.9842 4.98425H27.1874V5.18738H26.9842V4.98425Z" fill="#083344"/>
<path d="M20.6366 12.6366H21.535V13.535H20.6366V12.6366Z" fill="#083344"/>
<path d="M19.5858 13.5858H20.5858V14.5858H19.5858V13.5858Z" fill="#083344"/>
<path d="M15.3866 17.3866H16.785V18.785H15.3866V17.3866Z" fill="#083344"/>
<path d="M14.3358 18.3358H15.8358V19.8358H14.3358V18.3358Z" fill="#083344"/>
<path d="M13.285 19.285H14.8866V20.8866H13.285V19.285Z" fill="#083344"/>
<path d="M12.2381 20.2382H13.9334V21.9335H12.2381V20.2382Z" fill="#083344"/>
<path d="M11.1874 21.1874H12.9842V22.9843H11.1874V21.1874Z" fill="#083344"/>
<path d="M10.1366 22.1366H12.035V24.035H10.1366V22.1366Z" fill="#083344"/>
<path d="M9.08579 23.0858H11.0858V25.0858H9.08579V23.0858Z" fill="#083344"/>
<path d="M18.535 14.535H19.6366V15.6366H18.535V14.535Z" fill="#083344"/>
<path d="M17.4842 15.4843H18.6874V16.6874H17.4842V15.4843Z" fill="#083344"/>
<path d="M16.4334 16.4335H17.7381V17.7382H16.4334V16.4335Z" fill="#083344"/>
<path d="M21.6874 11.6874H22.4842V12.4843H21.6874V11.6874Z" fill="#083344"/>
<path d="M22.7342 10.7343H23.4374V11.4374H22.7342V10.7343Z" fill="#083344"/>
<path d="M23.785 9.78503H24.3866V10.3866H23.785V9.78503Z" fill="#083344"/>
<path d="M24.8358 8.83581H25.3358V9.33581H24.8358V8.83581Z" fill="#083344"/>
<path d="M25.8866 7.8866H26.285V8.28503H25.8866V7.8866Z" fill="#083344"/>
<path d="M26.9334 6.93347H27.2381V7.23816H26.9334V6.93347Z" fill="#083344"/>
<path d="M27.9842 5.98425H28.1874V6.18738H27.9842V5.98425Z" fill="#083344"/>
<path d="M21.6366 13.6366H22.535V14.535H21.6366V13.6366Z" fill="#083344"/>
<path d="M20.5858 14.5858H21.5858V15.5858H20.5858V14.5858Z" fill="#083344"/>
<path d="M16.3866 18.3866H17.785V19.785H16.3866V18.3866Z" fill="#083344"/>
<path d="M15.3358 19.3358H16.8358V20.8358H15.3358V19.3358Z" fill="#083344"/>
<path d="M14.285 20.285H15.8866V21.8866H14.285V20.285Z" fill="#083344"/>
<path d="M13.2381 21.2382H14.9334V22.9335H13.2381V21.2382Z" fill="#083344"/>
<path d="M12.1874 22.1874H13.9842V23.9843H12.1874V22.1874Z" fill="#083344"/>
<path d="M11.1366 23.1366H13.035V25.035H11.1366V23.1366Z" fill="#083344"/>
<path d="M10.0858 24.0858H12.0858V26.0858H10.0858V24.0858Z" fill="#083344"/>
<path d="M19.535 15.535H20.6366V16.6366H19.535V15.535Z" fill="#083344"/>
<path d="M18.4842 16.4843H19.6874V17.6874H18.4842V16.4843Z" fill="#083344"/>
<path d="M17.4334 17.4335H18.7381V18.7382H17.4334V17.4335Z" fill="#083344"/>
<path d="M22.6874 12.6874H23.4842V13.4843H22.6874V12.6874Z" fill="#083344"/>
<path d="M23.7342 11.7343H24.4374V12.4374H23.7342V11.7343Z" fill="#083344"/>
<path d="M24.785 10.785H25.3866V11.3866H24.785V10.785Z" fill="#083344"/>
<path d="M25.8358 9.83581H26.3358V10.3358H25.8358V9.83581Z" fill="#083344"/>
<path d="M26.8866 8.8866H27.285V9.28503H26.8866V8.8866Z" fill="#083344"/>
<path d="M27.9334 7.93347H28.2381V8.23816H27.9334V7.93347Z" fill="#083344"/>
<path d="M28.9842 6.98425H29.1874V7.18738H28.9842V6.98425Z" fill="#083344"/>
<path d="M22.6366 14.6366H23.535V15.535H22.6366V14.6366Z" fill="#083344"/>
<path d="M21.5858 15.5858H22.5858V16.5858H21.5858V15.5858Z" fill="#083344"/>
<path d="M17.3866 19.3866H18.785V20.785H17.3866V19.3866Z" fill="#083344"/>
<path d="M16.3358 20.3358H17.8358V21.8358H16.3358V20.3358Z" fill="#083344"/>
<path d="M15.285 21.285H16.8866V22.8866H15.285V21.285Z" fill="#083344"/>
<path d="M14.2381 22.2382H15.9334V23.9335H14.2381V22.2382Z" fill="#083344"/>
<path d="M13.1874 23.1874H14.9842V24.9843H13.1874V23.1874Z" fill="#083344"/>
<path d="M12.1366 24.1366H14.035V26.035H12.1366V24.1366Z" fill="#083344"/>
<path d="M11.0858 25.0858H13.0858V27.0858H11.0858V25.0858Z" fill="#083344"/>
<path d="M20.535 16.535H21.6366V17.6366H20.535V16.535Z" fill="#083344"/>
<path d="M19.4842 17.4843H20.6874V18.6874H19.4842V17.4843Z" fill="#083344"/>
<path d="M18.4334 18.4335H19.7381V19.7382H18.4334V18.4335Z" fill="#083344"/>
<path d="M23.6874 13.6874H24.4842V14.4843H23.6874V13.6874Z" fill="#083344"/>
<path d="M24.7342 12.7343H25.4374V13.4374H24.7342V12.7343Z" fill="#083344"/>
<path d="M25.785 11.785H26.3866V12.3866H25.785V11.785Z" fill="#083344"/>
<path d="M26.8358 10.8358H27.3358V11.3358H26.8358V10.8358Z" fill="#083344"/>
<path d="M27.8866 9.8866H28.285V10.285H27.8866V9.8866Z" fill="#083344"/>
<path d="M28.9334 8.93347H29.2381V9.23816H28.9334V8.93347Z" fill="#083344"/>
<path d="M29.9842 7.98425H30.1874V8.18738H29.9842V7.98425Z" fill="#083344"/>
<path d="M23.6366 15.6366H24.535V16.535H23.6366V15.6366Z" fill="#083344"/>
<path d="M22.5858 16.5858H23.5858V17.5858H22.5858V16.5858Z" fill="#083344"/>
<path d="M18.3866 20.3866H19.785V21.785H18.3866V20.3866Z" fill="#083344"/>
<path d="M17.3358 21.3358H18.8358V22.8358H17.3358V21.3358Z" fill="#083344"/>
<path d="M16.285 22.285H17.8866V23.8866H16.285V22.285Z" fill="#083344"/>
<path d="M15.2381 23.2382H16.9334V24.9335H15.2381V23.2382Z" fill="#083344"/>
<path d="M14.1874 24.1874H15.9842V25.9843H14.1874V24.1874Z" fill="#083344"/>
<path d="M13.1366 25.1366H15.035V27.035H13.1366V25.1366Z" fill="#083344"/>
<path d="M12.0858 26.0858H14.0858V28.0858H12.0858V26.0858Z" fill="#083344"/>
<path d="M21.535 17.535H22.6366V18.6366H21.535V17.535Z" fill="#083344"/>
<path d="M20.4842 18.4843H21.6874V19.6874H20.4842V18.4843Z" fill="#083344"/>
<path d="M19.4334 19.4335H20.7381V20.7382H19.4334V19.4335Z" fill="#083344"/>
<path d="M24.6874 14.6874H25.4842V15.4843H24.6874V14.6874Z" fill="#083344"/>
<path d="M25.7342 13.7343H26.4374V14.4374H25.7342V13.7343Z" fill="#083344"/>
<path d="M26.785 12.785H27.3866V13.3866H26.785V12.785Z" fill="#083344"/>
<path d="M27.8358 11.8358H28.3358V12.3358H27.8358V11.8358Z" fill="#083344"/>
<path d="M28.8866 10.8866H29.285V11.285H28.8866V10.8866Z" fill="#083344"/>
<path d="M29.9334 9.93347H30.2381V10.2382H29.9334V9.93347Z" fill="#083344"/>
<path d="M30.9842 8.98425H31.1874V9.18738H30.9842V8.98425Z" fill="#083344"/>
<path d="M24.6366 16.6366H25.535V17.535H24.6366V16.6366Z" fill="#083344"/>
<path d="M23.5858 17.5858H24.5858V18.5858H23.5858V17.5858Z" fill="#083344"/>
<path d="M19.3866 21.3866H20.785V22.785H19.3866V21.3866Z" fill="#083344"/>
<path d="M18.3358 22.3358H19.8358V23.8358H18.3358V22.3358Z" fill="#083344"/>
<path d="M17.285 23.285H18.8866V24.8866H17.285V23.285Z" fill="#083344"/>
<path d="M16.2381 24.2382H17.9334V25.9335H16.2381V24.2382Z" fill="#083344"/>
<path d="M15.1874 25.1874H16.9842V26.9843H15.1874V25.1874Z" fill="#083344"/>
<path d="M14.1366 26.1366H16.035V28.035H14.1366V26.1366Z" fill="#083344"/>
<path d="M13.0858 27.0858H15.0858V29.0858H13.0858V27.0858Z" fill="#083344"/>
<path d="M22.535 18.535H23.6366V19.6366H22.535V18.535Z" fill="#083344"/>
<path d="M21.4842 19.4843H22.6874V20.6874H21.4842V19.4843Z" fill="#083344"/>
<path d="M20.4334 20.4335H21.7381V21.7382H20.4334V20.4335Z" fill="#083344"/>
<path d="M25.6874 15.6874H26.4842V16.4843H25.6874V15.6874Z" fill="#083344"/>
<path d="M26.7342 14.7343H27.4374V15.4374H26.7342V14.7343Z" fill="#083344"/>
<path d="M27.785 13.785H28.3866V14.3866H27.785V13.785Z" fill="#083344"/>
<path d="M28.8358 12.8358H29.3358V13.3358H28.8358V12.8358Z" fill="#083344"/>
<path d="M29.8866 11.8866H30.285V12.285H29.8866V11.8866Z" fill="#083344"/>
<path d="M30.9334 10.9335H31.2381V11.2382H30.9334V10.9335Z" fill="#083344"/>
<path d="M31.9842 9.98425H32.1874V10.1874H31.9842V9.98425Z" fill="#083344"/>
<path d="M25.6366 17.6366H26.535V18.535H25.6366V17.6366Z" fill="#083344"/>
<path d="M24.5858 18.5858H25.5858V19.5858H24.5858V18.5858Z" fill="#083344"/>
<path d="M20.3866 22.3866H21.785V23.785H20.3866V22.3866Z" fill="#083344"/>
<path d="M19.3358 23.3358H20.8358V24.8358H19.3358V23.3358Z" fill="#083344"/>
<path d="M18.285 24.285H19.8866V25.8866H18.285V24.285Z" fill="#083344"/>
<path d="M17.2381 25.2382H18.9334V26.9335H17.2381V25.2382Z" fill="#083344"/>
<path d="M16.1874 26.1874H17.9842V27.9843H16.1874V26.1874Z" fill="#083344"/>
<path d="M15.1366 27.1366H17.035V29.035H15.1366V27.1366Z" fill="#083344"/>
<path d="M14.0858 28.0858H16.0858V30.0858H14.0858V28.0858Z" fill="#083344"/>
<path d="M23.535 19.535H24.6366V20.6366H23.535V19.535Z" fill="#083344"/>
<path d="M22.4842 20.4843H23.6874V21.6874H22.4842V20.4843Z" fill="#083344"/>
<path d="M21.4334 21.4335H22.7381V22.7382H21.4334V21.4335Z" fill="#083344"/>
<path d="M26.6874 16.6874H27.4842V17.4843H26.6874V16.6874Z" fill="#083344"/>
<path d="M27.7342 15.7343H28.4374V16.4374H27.7342V15.7343Z" fill="#083344"/>
<path d="M28.785 14.785H29.3866V15.3866H28.785V14.785Z" fill="#083344"/>
<path d="M29.8358 13.8358H30.3358V14.3358H29.8358V13.8358Z" fill="#083344"/>
<path d="M30.8866 12.8866H31.285V13.285H30.8866V12.8866Z" fill="#083344"/>
<path d="M31.9334 11.9335H32.2381V12.2382H31.9334V11.9335Z" fill="#083344"/>
<path d="M32.9842 10.9843H33.1873V11.1874H32.9842V10.9843Z" fill="#083344"/>
<path d="M26.6366 18.6366H27.535V19.535H26.6366V18.6366Z" fill="#083344"/>
<path d="M25.5858 19.5858H26.5858V20.5858H25.5858V19.5858Z" fill="#083344"/>
<path d="M21.3866 23.3866H22.785V24.785H21.3866V23.3866Z" fill="#083344"/>
<path d="M20.3358 24.3358H21.8358V25.8358H20.3358V24.3358Z" fill="#083344"/>
<path d="M19.285 25.285H20.8866V26.8866H19.285V25.285Z" fill="#083344"/>
<path d="M18.2381 26.2382H19.9334V27.9335H18.2381V26.2382Z" fill="#083344"/>
<path d="M17.1874 27.1874H18.9842V28.9843H17.1874V27.1874Z" fill="#083344"/>
<path d="M16.1366 28.1366H18.035V30.035H16.1366V28.1366Z" fill="#083344"/>
<path d="M15.0858 29.0858H17.0858V31.0858H15.0858V29.0858Z" fill="#083344"/>
<path d="M24.535 20.535H25.6366V21.6366H24.535V20.535Z" fill="#083344"/>
<path d="M23.4842 21.4843H24.6874V22.6874H23.4842V21.4843Z" fill="#083344"/>
<path d="M22.4334 22.4335H23.7381V23.7382H22.4334V22.4335Z" fill="#083344"/>
<path d="M27.6874 17.6874H28.4842V18.4843H27.6874V17.6874Z" fill="#083344"/>
<path d="M28.7342 16.7343H29.4374V17.4374H28.7342V16.7343Z" fill="#083344"/>
<path d="M29.785 15.785H30.3866V16.3866H29.785V15.785Z" fill="#083344"/>
<path d="M30.8358 14.8358H31.3358V15.3358H30.8358V14.8358Z" fill="#083344"/>
<path d="M31.8866 13.8866H32.285V14.285H31.8866V13.8866Z" fill="#083344"/>
<path d="M32.9334 12.9335H33.2381V13.2382H32.9334V12.9335Z" fill="#083344"/>
<path d="M33.9842 11.9843H34.1873V12.1874H33.9842V11.9843Z" fill="#083344"/>
<path d="M27.6366 19.6366H28.535V20.535H27.6366V19.6366Z" fill="#083344"/>
<path d="M26.5858 20.5858H27.5858V21.5858H26.5858V20.5858Z" fill="#083344"/>
<path d="M22.3866 24.3866H23.785V25.785H22.3866V24.3866Z" fill="#083344"/>
<path d="M21.3358 25.3358H22.8358V26.8358H21.3358V25.3358Z" fill="#083344"/>
<path d="M20.285 26.285H21.8866V27.8866H20.285V26.285Z" fill="#083344"/>
<path d="M19.2381 27.2382H20.9334V28.9335H19.2381V27.2382Z" fill="#083344"/>
<path d="M18.1874 28.1874H19.9842V29.9843H18.1874V28.1874Z" fill="#083344"/>
<path d="M17.1366 29.1366H19.035V31.035H17.1366V29.1366Z" fill="#083344"/>
<path d="M16.0858 30.0858H18.0858V32.0858H16.0858V30.0858Z" fill="#083344"/>
<path d="M25.535 21.535H26.6366V22.6366H25.535V21.535Z" fill="#083344"/>
<path d="M24.4842 22.4843H25.6874V23.6874H24.4842V22.4843Z" fill="#083344"/>
<path d="M23.4334 23.4335H24.7381V24.7382H23.4334V23.4335Z" fill="#083344"/>
<path d="M28.6874 18.6874H29.4842V19.4843H28.6874V18.6874Z" fill="#083344"/>
<path d="M29.7342 17.7343H30.4374V18.4374H29.7342V17.7343Z" fill="#083344"/>
<path d="M30.785 16.785H31.3866V17.3866H30.785V16.785Z" fill="#083344"/>
<path d="M31.8358 15.8358H32.3358V16.3358H31.8358V15.8358Z" fill="#083344"/>
<path d="M32.8866 14.8866H33.285V15.285H32.8866V14.8866Z" fill="#083344"/>
<path d="M33.9334 13.9335H34.2381V14.2382H33.9334V13.9335Z" fill="#083344"/>
<path d="M34.9842 12.9843H35.1873V13.1874H34.9842V12.9843Z" fill="#083344"/>
<path d="M28.6366 20.6366H29.535V21.535H28.6366V20.6366Z" fill="#083344"/>
<path d="M27.5858 21.5858H28.5858V22.5858H27.5858V21.5858Z" fill="#083344"/>
<path d="M23.3866 25.3866H24.785V26.785H23.3866V25.3866Z" fill="#083344"/>
<path d="M22.3358 26.3358H23.8358V27.8358H22.3358V26.3358Z" fill="#083344"/>
<path d="M21.285 27.285H22.8866V28.8866H21.285V27.285Z" fill="#083344"/>
<path d="M20.2381 28.2382H21.9334V29.9335H20.2381V28.2382Z" fill="#083344"/>
<path d="M19.1874 29.1874H20.9842V30.9843H19.1874V29.1874Z" fill="#083344"/>
<path d="M18.1366 30.1366H20.035V32.035H18.1366V30.1366Z" fill="#083344"/>
<path d="M17.0858 31.0858H19.0858V33.0858H17.0858V31.0858Z" fill="#083344"/>
<path d="M26.535 22.535H27.6366V23.6366H26.535V22.535Z" fill="#083344"/>
<path d="M25.4842 23.4843H26.6874V24.6874H25.4842V23.4843Z" fill="#083344"/>
<path d="M24.4334 24.4335H25.7381V25.7382H24.4334V24.4335Z" fill="#083344"/>
<path d="M29.6874 19.6874H30.4842V20.4843H29.6874V19.6874Z" fill="#083344"/>
<path d="M30.7342 18.7343H31.4374V19.4374H30.7342V18.7343Z" fill="#083344"/>
<path d="M31.785 17.785H32.3866V18.3866H31.785V17.785Z" fill="#083344"/>
<path d="M32.8358 16.8358H33.3358V17.3358H32.8358V16.8358Z" fill="#083344"/>
<path d="M33.8866 15.8866H34.285V16.285H33.8866V15.8866Z" fill="#083344"/>
<path d="M34.9334 14.9335H35.2381V15.2382H34.9334V14.9335Z" fill="#083344"/>
<path d="M35.9842 13.9843H36.1873V14.1874H35.9842V13.9843Z" fill="#083344"/>
</g>
<path fill-rule="evenodd" clip-rule="evenodd" d="M12.7597 26.8325C16.6877 30.0537 22.4954 29.8305 26.163 26.1629C29.8305 22.4954 30.0537 16.6877 26.8325 12.7596L26.1215 13.4706C28.9544 17.0044 28.7325 22.1791 25.4558 25.4558C22.1791 28.7325 17.0044 28.9544 13.4707 26.1215L12.7597 26.8325Z" fill="#083344"/>
<path fill-rule="evenodd" clip-rule="evenodd" d="M21.2132 7.07106C22.3196 8.17743 23.1125 9.47855 23.592 10.8641L25.4529 12.725L25.2238 12.9542L25.9309 13.6613L26.1601 13.4321L26.8672 12.725L26.1601 12.0179L21.9174 7.77528L21.2132 7.07106ZM13.2029 26.3892L12.725 26.8672L12.0179 26.1601L7.77528 21.9174L7.07106 21.2132C7.97419 22.1163 9.00708 22.8106 10.1097 23.296L13.2029 26.3892Z" fill="#083344"/>
<path d="M20.8596 7.42464C24.5696 11.1346 24.5696 17.1497 20.8596 20.8597C17.1497 24.5696 11.1346 24.5696 7.42462 20.8597C3.71464 17.1497 3.71464 11.1346 7.42462 7.42464C11.1346 3.71466 17.1497 3.71466 20.8596 7.42464Z" stroke="#083344"/>
</g>
<defs>
<clipPath id="clip0_11_1027">
<rect width="33.234" height="33.234" fill="white"/>
</clipPath>
</defs>
</svg>
